<?xml version="1.0" encoding="utf-8"?>
<!-- Generator: Adobe Illustrator 24.1.2, SVG Export Plug-In . SVG Version: 6.00 Build 0)  -->
<svg version="1.1" id="Capa_1" xmlns="http://www.w3.org/2000/svg" xmlns:xlink="http://www.w3.org/1999/xlink" x="0px" y="0px"
	 viewBox="0 0 76.1 49.2" style="enable-background:new 0 0 76.1 49.2;" xml:space="preserve">
<style type="text/css">
	.st0{fill:#7D61E9;}
</style>
<path class="st0" d="M60.2,17.4c-0.4,0-0.8,0-1.2,0.1c0-0.1,0-0.3,0-0.4C59,7.7,51.3,0,41.9,0c-8.7,0-15.8,6.4-16.9,14.8
	c-0.5-0.1-1-0.1-1.6-0.1c-5.2,0-9.4,4.2-9.4,9.4c0,0.3,0,0.6,0,0.8c-0.6-0.1-1.2-0.1-1.8-0.1C5.5,24.8,0,30.2,0,37
	c0,6.7,5.5,12.2,12.2,12.2c6.7,0,39.4,0,48,0c8.8,0,15.9-7.1,15.9-15.9S69,17.4,60.2,17.4z"/>
</svg>
